<svg xmlns="http://www.w3.org/2000/svg" xmlns:xlink="http://www.w3.org/1999/xlink" viewBox="0 0 61 60.55">
  <defs>
    <ref id="paramX" param="x" default="#0f0"/>
    <style>
      .cls-1 {
        fill: url(#linear-gradient);
      }
      .cls-2 {
        fill: url(#linear-gradient-2);
      }
      .cls-3 {
        fill: url(#linear-gradient-3);
      }
    </style>
    <linearGradient id="linear-gradient" x1="33.67" y1="0.96" x2="33.67" y2="55.53" gradientUnits="userSpaceOnUse">
      <stop offset="0" stop-color="currentColor" />
      <stop offset="0.75" stop-color="currentColor" stop-opacity="0" />
    </linearGradient>
    <linearGradient
      id="linear-gradient-2"
      x1="-22.07"
      y1="-94.81"
      x2="-22.07"
      y2="-40.24"
      gradientTransform="matrix(-0.5, 0.87, -0.87, -0.5, -40.03, 18.36)"
      xlink:href="#linear-gradient"
    />
    <linearGradient
      id="linear-gradient-3"
      x1="-108.15"
      y1="8.18"
      x2="-108.15"
      y2="62.75"
      gradientTransform="translate(-57.09 -48.81) rotate(-120)"
      xlink:href="#linear-gradient"
    />
  </defs>
  <g id="Layer_2" data-name="Layer 2">
    <path
    class="cls-1"
    d="M33.67.49A27.33,27.33,0,1,0,61,27.81,27.33,27.33,0,0,0,33.67.49Zm0,52.61A25.29,25.29,0,1,1,59,27.81,25.29,25.29,0,0,1,33.67,53.1Z"
    />
    <path
    class="cls-2"
    d="M53.52,46.88a27.33,27.33,0,1,0-37.33,10A27.32,27.32,0,0,0,53.52,46.88ZM8,20.57a25.28,25.28,0,1,1,9.25,34.55A25.29,25.29,0,0,1,8,20.57Z"
    />
    <path
    class="cls-3"
    d="M3.67,41a27.32,27.32,0,1,0,10-37.32A27.32,27.32,0,0,0,3.67,41Zm45.56-26.3A25.29,25.29,0,1,1,14.69,5.43,25.28,25.28,0,0,1,49.23,14.69Z"
    />
  </g>
</svg>
