<svg xmlns="http://www.w3.org/2000/svg" viewBox="0 0 86.06 89">
    <path d="M 58.9 89 H 86.1 a 17.9 17.9 0 0 1 -4.4 -1.7 a 21.8 21.8 0 0 1 -3.5 -3 A 25.6 25.6 0 0 1 74.4 79 L 62.5 58.4 q -3.2 -5.6 -6.7 -7.8 a 26.5 26.5 0 0 0 9.3 -2.9 A 22.6 22.6 0 0 0 72 42.2 a 25.1 25.1 0 0 0 4.2 -7.5 a 25.7 25.7 0 0 0 1.5 -8.7 a 24.1 24.1 0 0 0 -2 -9.6 a 24.7 24.7 0 0 0 -5.9 -8.4 A 29.5 29.5 0 0 0 59.9 2.2 A 39.1 39.1 0 0 0 46.1 0 H 6.9 c 0.3 0.1 0.8 0.3 1.7 0.7 a 7.6 7.6 0 0 1 2.7 2.1 A 15.1 15.1 0 0 1 14 7.4 A 23.4 23.4 0 0 1 15.1 15.5 V 74.2 a 25.5 25.5 0 0 1 -1 8 a 14 14 0 0 1 -2.2 4.4 A 12.2 12.2 0 0 1 8 89 H 40.2 a 12.2 12.2 0 0 1 -3.8 -2.6 A 15.4 15.4 0 0 1 34.3 82 a 26.2 26.2 0 0 1 -0.9 -7.8 V 54 h 1.9 a 6.9 6.9 0 0 1 4.5 1.5 q 1.9 1.5 4.3 6.1 Z M 33.3 42 V 12.2 h 9.2 a 18.9 18.9 0 0 1 7 1.2 a 14.8 14.8 0 0 1 5 3.2 a 13.1 13.1 0 0 1 3 4.6 a 14.9 14.9 0 0 1 1 5.4 a 19.3 19.3 0 0 1 -0.9 5.8 a 13 13 0 0 1 -2.8 4.9 a 13.7 13.7 0 0 1 -4.9 3.4 A 18.7 18.7 0 0 1 42.6 42 Z"/>
    <path d="M 42.5 15.2 H 37.3 c -0.3 0 -0.7 0.1 -1 0.1 V 39 h 6.3 a 16 16 0 0 0 6.1 -1 a 10.9 10.9 0 0 0 3.9 -2.7 a 10 10 0 0 0 2.2 -3.8 a 16.3 16.3 0 0 0 0.7 -4.9 a 11.8 11.8 0 0 0 -0.8 -4.3 a 10.1 10.1 0 0 0 -2.3 -3.6 a 11.8 11.8 0 0 0 -4 -2.5 a 12.6 12.6 0 0 0 -2.5 -0.7 l -0.3 0 A 18.7 18.7 0 0 0 42.5 15.2 Z"/>
    <path d="M 62.1 52.3 a 33.6 33.6 0 0 1 3.1 4.6 l 3.7 6.5 A 32.3 32.3 0 0 0 73 47.5 c 0 -0.6 0 -1.3 -0.1 -1.9 a 25.8 25.8 0 0 1 -6.4 4.8 A 27.4 27.4 0 0 1 62.1 52.3 Z"/>
    <path d="M 41.4 63 c -1.9 -3.5 -3 -4.7 -3.5 -5.2 a 3.6 3.6 0 0 0 -1.5 -0.7 V 74.2 a 28.1 28.1 0 0 0 0.5 5.6 A 31 31 0 0 0 40.5 80 a 32.7 32.7 0 0 0 9.4 -1.4 Z"/>
    <path d="M 8 47.5 a 32.3 32.3 0 0 0 4.1 15.8 V 31.7 A 32.3 32.3 0 0 0 8 47.5 Z"/>
    <path d="M 51.8 82.2 A 36.3 36.3 0 0 1 40.5 84 c -0.7 0 -1.4 0 -2.1 -0.1 a 5.8 5.8 0 0 0 0.4 0.7 c 0.4 0.4 2.7 2.9 4.2 3.3 a 40 40 0 0 0 10.8 -2.1 Z"/>
    <path d="M 12 76.3 c 0 -0.7 0.1 -1.4 0.1 -2.1 V 70.4 a 36.4 36.4 0 0 1 0 -45.8 v -6 A 40.5 40.5 0 0 0 12 76.3 Z"/>
    <path d="M 79 35.8 a 28.1 28.1 0 0 1 -2.6 5.3 A 36.9 36.9 0 0 1 77 47.5 a 36.3 36.3 0 0 1 -5.9 19.8 l 2.2 3.9 a 40.5 40.5 0 0 0 5.8 -35.8 C 79.1 35.5 79 35.6 79 35.8 Z"/>
</svg>
